<svg width="20" height="21" viewBox="0 0 20 21" fill="none" xmlns="http://www.w3.org/2000/svg">
<path d="M12.5 8H12.5083M12.5 13C15.2614 13 17.5 10.7614 17.5 8C17.5 5.23858 15.2614 3 12.5 3C9.73858 3 7.5 5.23858 7.5 8C7.5 8.22807 7.51527 8.45256 7.54484 8.67253C7.59348 9.03432 7.6178 9.21521 7.60143 9.32966C7.58438 9.44888 7.56267 9.51312 7.50391 9.61825C7.4475 9.71917 7.34809 9.81857 7.14928 10.0174L2.89052 14.2761C2.7464 14.4203 2.67433 14.4923 2.6228 14.5764C2.57711 14.651 2.54344 14.7323 2.52303 14.8173C2.5 14.9132 2.5 15.0151 2.5 15.219V16.6667C2.5 17.1334 2.5 17.3667 2.59083 17.545C2.67072 17.7018 2.79821 17.8293 2.95501 17.9092C3.13327 18 3.36662 18 3.83333 18H5.28105C5.48487 18 5.58679 18 5.68269 17.977C5.76772 17.9566 5.84901 17.9229 5.92357 17.8772C6.00767 17.8257 6.07973 17.7536 6.22386 17.6095L10.4826 13.3507C10.6814 13.1519 10.7808 13.0525 10.8818 12.9961C10.9869 12.9373 11.0511 12.9156 11.1703 12.8986C11.2848 12.8822 11.4657 12.9065 11.8275 12.9552C12.0474 12.9847 12.2719 13 12.5 13Z" stroke="#C6581B" stroke-width="1.5" stroke-linecap="round" stroke-linejoin="round"/>
</svg>
