<svg width="135" height="71" viewBox="0 0 135 71" fill="none" xmlns="http://www.w3.org/2000/svg">
<g clip-path="url(#clip0_38_799)">
<path fill-rule="evenodd" clip-rule="evenodd" d="M133.718 56.7865V70.3937H135V70.8653H130.95V70.3937H132.3V63.6575H126.968V70.3937H128.25V70.8653H124.268V70.3937H125.55V56.7865H124.268V56.3824H128.25V56.7865H126.968V63.1186H132.3V56.7865H130.95V56.3824H135V56.7865H133.718Z" fill="#192235"/>
<path fill-rule="evenodd" clip-rule="evenodd" d="M113.197 68.1034C112.927 66.9583 112.792 65.3416 112.792 63.5901C112.792 61.9061 112.927 60.2894 113.197 59.0768C113.737 56.7865 114.952 56.1803 117.18 56.1803C119.407 56.1803 120.622 56.7865 121.162 59.0768C121.432 60.2894 121.567 61.8387 121.567 63.5901C121.567 65.2742 121.432 66.8909 121.162 68.1034C120.622 70.3937 119.407 71 117.18 71C114.952 71 113.805 70.3937 113.197 68.1034ZM119.88 68.0361C120.082 66.8909 120.15 65.2068 120.15 63.6575C120.15 62.0408 120.082 60.4241 119.88 59.2789C119.542 57.1233 118.8 56.7192 117.247 56.7192C115.695 56.7192 114.952 57.056 114.615 59.2789C114.412 60.4241 114.345 62.0408 114.345 63.6575C114.345 65.2742 114.412 66.8909 114.615 68.0361C114.952 70.1917 115.695 70.5958 117.247 70.5958C118.8 70.5958 119.542 70.1917 119.88 68.0361Z" fill="#192235"/>
<path fill-rule="evenodd" clip-rule="evenodd" d="M111.307 70.3937V70.8653H106.987V70.3937H108.81L105.975 57.5949H105.907L102.667 70.3937H104.085V70.8653H101.047V70.3937H101.992L105.57 56.3824H107.055L110.295 70.3937H111.307Z" fill="#192235"/>
<path fill-rule="evenodd" clip-rule="evenodd" d="M100.508 70.3937V70.7979H96.1877V70.3937H97.9427L96.9302 65.8805H92.7452L91.5977 70.3937H93.0827V70.7979H89.9102V70.3937H90.9227L94.4327 56.315H95.9852L99.3602 70.3937H100.508ZM96.8627 65.4089L95.0402 57.3928H94.9727L92.9477 65.4089H96.8627Z" fill="#192235"/>
<path fill-rule="evenodd" clip-rule="evenodd" d="M89.1674 56.7865H86.1974V70.3937H88.6274V70.8653H82.4174V70.3937H84.7799V56.7865H81.8774V59.7505H80.7974V56.3824H90.2474V59.7505H89.1674V56.7865Z" fill="#192235"/>
<path fill-rule="evenodd" clip-rule="evenodd" d="M78.7724 63.7922C78.7724 65.4089 78.6374 67.0256 78.3674 68.1034C77.6249 70.9326 76.1399 71 74.1149 71C71.0099 71 70.6724 68.9791 70.6724 67.4972V66.8235H71.7524V67.5645C71.7524 69.2486 71.9549 70.5285 74.1149 70.5958C75.7349 70.6632 76.6124 70.3264 77.0849 68.2381C77.2874 67.2951 77.3549 65.7457 77.3549 64.2638V63.7249C77.1524 63.5901 76.9499 63.388 76.5449 63.388C75.5324 63.388 75.1274 64.3311 74.0474 64.3311C73.0349 64.3311 72.6299 63.8596 72.1574 63.186L72.4274 62.9839C72.6974 63.3207 73.1024 63.4554 73.3049 63.4554C74.2499 63.4554 74.9924 62.6471 76.0724 62.6471C76.8149 62.6471 77.1524 62.9165 77.3549 63.186C77.3549 61.5693 77.2199 60.0199 77.1524 59.2116C76.8824 57.2581 76.3424 56.7865 74.6549 56.7865C72.6299 56.7865 72.0899 57.7296 72.0224 60.1546H70.9424V56.3823H71.8874L71.9549 58.1338C72.1574 57.056 72.8324 56.315 74.5874 56.315C76.8149 56.315 77.8949 56.8539 78.4349 59.2116C78.6374 60.222 78.7724 62.0408 78.7724 63.7922Z" fill="#192235"/>
<path fill-rule="evenodd" clip-rule="evenodd" d="M54.6751 62.2429C58.1176 62.2429 58.3201 63.4554 58.3201 67.0256C58.3201 70.9326 56.7001 70.7979 53.8651 70.7979H49.7476V70.3937H51.0301V56.7865H49.7476V56.3824H54.0001V56.7865H52.4476V62.2429H54.6751ZM54.2701 70.3937C56.4976 70.3937 56.8351 69.6528 56.8351 66.8235C56.8351 63.6575 56.6326 62.6471 54.4726 62.6471H52.4476V70.3937H54.2701ZM61.2901 56.7865V70.3937H62.6401V70.7979H58.5901V70.3937H59.8726V56.7865H58.5901V56.3824H62.6401V56.7865H61.2901Z" fill="#192235"/>
<path fill-rule="evenodd" clip-rule="evenodd" d="M47.1149 63.6575C47.1149 64.8027 46.9799 65.9478 46.7774 66.5541C46.0349 68.5076 44.5499 68.9118 41.5124 68.9118V70.3937H42.8624V70.7979H38.9474V70.3937H40.2299V68.9118C37.0574 68.8444 35.7074 68.4402 34.9649 66.5541C34.7624 65.9478 34.6274 64.6006 34.6274 63.388C34.6274 62.445 34.7624 60.8283 34.9649 60.222C35.5049 58.6727 36.4499 57.9317 40.2299 57.8643V56.8539H38.9474V56.4497H42.8624V56.8539H41.5124V57.8643C44.4824 57.9317 46.2374 58.3359 46.7774 60.222C46.9799 60.8956 47.1149 62.5797 47.1149 63.6575ZM40.2299 68.575V58.1338C37.2599 58.2011 36.6524 58.6727 36.3149 60.0873C36.1124 60.8283 36.0449 63.0512 36.0449 63.2533C36.0449 64.4658 36.1124 65.7457 36.3149 66.4867C36.5849 67.834 37.3949 68.5076 40.2299 68.575ZM45.6974 63.4554C45.6974 62.3102 45.6299 60.8956 45.4274 60.1547C45.0899 58.74 44.4824 58.2685 41.5124 58.2011V68.6423C44.3474 68.575 45.1574 67.9013 45.4274 66.6214C45.6299 65.7457 45.6299 64.6006 45.6974 63.4554Z" fill="#192235"/>
<path fill-rule="evenodd" clip-rule="evenodd" d="M30.7127 56.7865V70.3937H32.0627V70.7979H28.0127V70.3937H29.2952V56.9213H29.2277L23.9627 70.8653H22.4102V56.7865H21.2627V56.3823H25.1777V56.7865H23.8277V69.3833H23.8952L28.8227 56.3823H32.0627V56.7865H30.7127ZM24.7727 54.0247C24.7727 53.4858 25.1777 53.2163 25.5827 53.2163C26.0552 53.2163 26.3927 53.4858 26.3927 53.9573C26.3927 54.3615 26.1227 54.6309 25.7177 54.6983C25.9877 54.833 26.2577 54.9677 26.6627 54.9677C27.6752 54.9677 28.4852 54.2268 28.4852 53.351H28.7552C28.6877 54.2268 27.9452 55.1698 26.5952 55.2372C25.7177 55.3046 24.7727 54.7657 24.7727 54.0247Z" fill="#192235"/>
<path fill-rule="evenodd" clip-rule="evenodd" d="M12.8925 63.5901V70.3937H17.55V67.4972H18.6975V70.8653H10.125V70.3937H11.475V56.7865H10.125V56.3824H18.63V59.6831H17.4825V56.7865H12.8925V63.0512H16.4025V61.5019H17.0775V65.2742H16.4025V63.5901H12.8925Z" fill="#192235"/>
<path fill-rule="evenodd" clip-rule="evenodd" d="M8.09988 66.8235V67.4972C8.09988 68.9791 7.62738 71 4.52238 71C2.69988 71 1.21488 70.9326 0.472383 68.1034C0.202383 67.0256 0.0673828 65.4089 0.0673828 63.7922C0.0673828 62.1082 0.202383 60.3567 0.472383 59.2116C1.01238 56.9213 2.02488 56.1803 4.31988 56.1803C5.87238 56.1803 6.68238 56.7192 7.01988 57.7296L7.08738 56.2476H8.03238V60.0199H6.95238C6.88488 57.5949 6.27738 56.7192 4.31988 56.7192C2.63238 56.7192 2.15988 57.3254 1.82238 59.3463C1.68738 60.2894 1.55238 62.2429 1.55238 64.1964C1.55238 65.6784 1.61988 67.1603 1.82238 68.1708C2.22738 70.3937 2.96988 70.5285 4.58988 70.5285C6.68238 70.5285 6.81738 69.5854 6.81738 67.4972V66.8235H8.09988Z" fill="#192235"/>
<path fill-rule="evenodd" clip-rule="evenodd" d="M87.2775 25.3956L89.1675 26.1366C89.1675 26.6755 89.1675 27.1471 89.235 27.686C89.0325 28.9658 88.3575 29.7742 87.8175 29.9089C87.6825 29.9089 87.5475 29.9089 87.4125 29.9089C87.1425 29.5721 86.67 29.1679 85.995 28.8985C85.3875 28.6964 84.7125 28.629 84.105 28.8311L83.565 28.9658L83.4975 34.3548L90.855 34.4222L91.0575 33.9507C91.4625 33.0076 92.07 32.1319 92.8125 31.3909C93.96 30.2457 95.31 29.7068 96.1875 29.4374C96.1875 28.8985 96.1875 28.4269 96.1875 27.8881C95.445 28.0901 94.5675 28.3596 93.6225 28.8985C92.6775 29.4374 92.0025 30.0436 91.8 30.3131C91.0575 31.0541 90.3825 31.9298 89.91 32.8729L84.9825 32.8055L85.05 30.111C85.185 30.111 85.3875 30.1784 85.59 30.1784C86.0625 30.3131 86.3325 30.6499 86.4675 30.852L86.6025 31.0541L86.805 31.1214C87.2775 31.3235 87.75 31.3909 88.2225 31.2562C89.5725 31.0541 90.6525 29.5721 90.855 27.686V27.6186V27.5512C90.855 27.4839 90.855 27.3491 90.855 27.2818C92.4075 25.7998 94.0275 24.7894 95.7825 24.3178C96.66 24.0484 97.335 24.0484 98.01 23.981C99.0225 23.9137 99.9675 23.8463 101.318 23.1727C101.79 22.9032 102.195 22.6338 102.6 22.3643C102.6 23.3074 102.735 24.1831 102.938 25.0588C103.275 26.1366 103.748 27.0123 104.018 27.5512C104.49 28.2922 104.895 28.6964 105.57 29.37C105.705 29.5047 105.84 29.6395 105.975 29.7742C107.46 31.3235 108.405 32.1992 108.608 32.6708C108.675 32.7381 108.743 32.9402 108.81 33.1423C109.08 33.8159 109.35 35.0285 108.878 36.241C108.608 36.8473 108.135 37.5882 107.663 38.0598C107.393 38.3292 107.19 38.5313 106.988 38.7334C106.583 39.1376 106.178 39.5417 106.178 40.2827C106.178 41.3605 107.19 42.0342 107.663 42.371C108.54 42.9772 109.485 43.1793 110.295 43.2467L110.565 45.8738L108.338 49.9156H102.735V48.501C102.803 47.8273 103.275 47.4232 103.68 47.4232C103.95 47.4232 104.288 47.6252 104.49 47.9621L104.76 48.4336L105.3 48.3662C105.705 48.2989 106.313 48.0968 106.853 47.6252C107.46 47.0863 108.068 46.0085 107.73 44.9307C107.46 44.055 106.718 43.6509 106.448 43.5161L106.38 43.4488H106.313C104.895 43.1793 103.545 42.7078 102.263 42.1015C101.318 41.63 101.048 41.3605 100.98 41.0911C100.913 40.8216 100.98 40.4175 101.25 39.6765C101.453 39.1376 101.588 38.8008 101.79 38.5313C101.993 38.1945 102.128 37.9251 102.195 37.4535C102.398 36.1736 101.453 34.5569 101.453 34.5569C100.44 32.9402 99.0225 32.1319 98.28 31.7277C97.605 31.3235 96.5925 30.9194 95.175 30.6499C95.175 31.1214 95.175 31.593 95.175 32.0645C95.7825 32.1992 96.8625 32.5361 97.875 33.1423C97.2 33.1423 96.525 33.2097 95.85 33.3444C94.905 33.5465 94.0275 33.6812 93.2175 34.3548C93.015 34.4896 91.395 35.8368 91.4625 37.8577C91.4625 38.8681 91.935 39.9459 92.5425 41.2932L92.61 41.4279C92.8125 41.8321 92.88 42.0342 92.8125 42.2362C92.745 42.5057 92.5425 42.7078 92.205 42.9772C91.8675 43.1793 91.53 43.2467 91.26 43.2467C90.855 42.8425 90.045 42.3036 88.965 42.371C88.6275 42.371 87.345 42.5731 86.67 43.7182C86.13 44.6613 86.1975 45.8738 86.94 46.8169L87.21 47.1537H95.85L98.82 43.3814L98.28 42.9099C98.28 42.9099 97.605 42.3036 97.8075 41.4953C97.9425 40.9564 98.3475 40.4848 98.8875 40.2827C98.8875 39.7438 98.8875 39.2049 98.8875 38.666C97.5375 38.9355 96.4575 39.9459 96.255 41.2258C96.0525 42.371 96.5925 43.314 96.7275 43.5835L95.04 45.6717H88.02C87.885 45.3349 87.885 44.9307 88.0875 44.5939C88.3575 44.1224 88.965 44.055 89.1 44.055C89.8425 43.9877 90.315 44.5939 90.315 44.5939L90.5175 44.8634L90.855 44.9307C91.3275 44.9981 92.205 44.9981 93.0825 44.4592C93.825 43.9877 94.2975 43.3814 94.4325 42.7078C94.5675 41.9668 94.365 41.4279 94.095 40.9564L94.0275 40.8216C93.4875 39.6765 93.0825 38.7334 93.0825 38.0598C93.0825 36.7799 94.23 35.8368 94.2975 35.8368C94.5675 35.6347 95.04 35.2979 96.255 35.0958C97.065 34.9611 98.3475 34.8264 99.9675 35.0958C100.035 35.2306 100.17 35.3653 100.238 35.5C100.575 36.0389 100.98 36.7125 100.845 37.3862C100.778 37.5882 100.71 37.723 100.575 37.9924C100.44 38.2619 100.17 38.666 99.9675 39.3397C99.63 40.2154 99.4275 40.889 99.63 41.63C99.9 42.5057 100.575 43.0446 101.655 43.5835C103.005 44.2571 104.423 44.7287 105.975 45.0655C106.11 45.1328 106.38 45.3349 106.448 45.6044C106.65 46.1433 105.975 46.7495 105.975 46.7495C105.84 46.8843 105.705 46.9516 105.57 47.019C105.098 46.4801 104.49 46.2106 103.883 46.2106C102.6 46.2106 101.588 47.3558 101.453 48.703V48.7704V51.667H109.418L112.253 46.4127L111.78 41.9668H111.105C110.498 41.9668 109.553 41.8994 108.675 41.3605C108.473 41.2258 107.798 40.7543 107.798 40.4848C107.798 40.4175 108 40.2154 108.203 40.0133C108.405 39.8112 108.675 39.5417 108.945 39.2049C109.148 38.9355 109.958 37.9251 110.363 36.982C110.498 36.7125 110.565 36.3757 110.633 36.1063C111.443 36.982 112.388 37.6556 113.67 37.723C113.67 37.723 113.738 37.723 113.805 37.723C114.345 37.723 115.425 37.5882 115.965 36.7799C116.843 35.5674 116.168 33.5465 115.358 32.6708L108.27 25.463C108 24.9915 108 24.4526 108.338 24.0484C108.608 23.7789 108.945 23.5769 109.35 23.6442L111.105 25.3956C111.173 26.0019 111.375 27.0123 112.185 27.8207C113.603 29.3027 115.56 28.9658 115.763 28.8985L116.37 28.7638V28.1575C116.37 26.6755 115.695 25.3283 114.413 24.6547C113.535 24.1831 112.658 24.1831 112.05 24.2505L110.025 22.2296L109.823 22.1622C108.81 21.9602 107.798 22.297 107.123 23.038C106.38 23.981 106.313 25.2609 107.055 26.2714L107.123 26.3387L114.075 33.5465C114.548 34.018 114.885 35.2979 114.548 35.7695C114.413 35.9715 114.008 36.1063 113.468 36.1063C111.915 36.0389 110.633 33.9507 110.093 32.6708C109.958 32.4013 109.89 32.1992 109.823 32.0645C109.485 31.3909 108.675 30.5825 106.92 28.7638C106.785 28.629 106.65 28.4943 106.515 28.3596C105.84 27.686 105.503 27.3491 105.165 26.8102C104.895 26.3387 104.49 25.6651 104.22 24.722C103.883 23.5095 103.815 22.0949 104.085 20.815C104.49 20.2761 104.76 19.7372 104.963 19.1309C105.638 17.1774 105.165 15.426 104.828 14.2135C104.49 12.9336 103.883 11.7211 103.14 10.6433C103.208 10.5085 103.275 10.3738 103.343 10.1717C103.613 9.43074 103.478 8.75712 103.343 8.28558L103.208 7.74668C98.55 7.81404 93.8925 7.88141 89.235 7.94877C89.64 9.4981 90.045 11.0474 90.45 12.5968C90.72 12.4621 90.99 12.3273 91.26 12.1926C91.935 11.8558 92.6775 12.0579 92.88 12.4621C93.015 12.7315 93.015 13.1357 92.88 13.4051C92.6775 13.8093 92.1375 14.0114 91.5975 13.8767C91.3275 13.8093 90.99 13.7419 90.72 13.6746C91.125 15.2913 91.53 16.908 91.935 18.4573C92.1375 18.2552 92.34 18.0531 92.475 17.851C92.6775 17.649 93.015 17.3795 93.42 17.3121C93.7575 17.2448 93.96 17.2448 94.1625 17.3795C94.23 17.4469 94.2975 17.5142 94.365 17.649C93.825 18.0531 93.4875 18.3226 93.4875 18.3226C91.26 20.0066 90.855 20.4108 90.45 21.0171C89.64 22.297 89.4375 23.6442 89.3025 24.5199C89.3025 24.5873 89.3025 24.5873 89.3025 24.6547L88.2225 24.2505L84.7125 18.8615V14.2808C85.05 14.4156 85.3875 14.685 85.6575 15.0892C86.4 16.167 85.995 17.4469 85.9275 17.5142L85.725 18.0531L86.1975 18.3899C86.7375 18.7941 87.345 19.2657 88.02 19.6698C88.425 19.9393 88.83 20.1414 89.235 20.4108C89.5725 20.074 89.91 19.6698 90.2475 19.333C89.775 19.0636 89.235 18.7941 88.83 18.4573C88.3575 18.1879 87.9525 17.851 87.48 17.5142C87.615 16.7732 87.75 15.4934 86.8725 14.2808C85.9275 12.9336 84.51 12.6641 84.0375 12.5968L83.2275 12.4621V19.2657L87.2775 25.3956ZM112.455 25.5977C112.793 25.5977 113.13 25.6651 113.535 25.8672C114.075 26.204 114.48 26.7429 114.615 27.4165C114.143 27.4165 113.535 27.2144 112.995 26.7429C112.658 26.3387 112.523 25.9345 112.455 25.5977ZM102.06 9.22865C102.06 9.36338 102.06 9.4981 101.993 9.70019C101.79 10.3065 101.115 10.778 100.238 10.8454L99.5625 10.9127V11.5863C99.5625 12.26 99.4275 12.7989 99.225 13.3378C98.8875 14.0787 98.415 14.4829 97.605 15.0892C96.8625 15.6954 96.1875 16.2343 95.58 16.6385C95.445 16.4364 95.31 16.2343 95.1075 16.0996C94.4325 15.5607 93.6225 15.6954 93.2175 15.7628C92.9475 15.8302 92.6775 15.8975 92.475 15.9649L92.34 15.2239C93.0825 15.0892 93.825 14.685 94.1625 14.0114C94.5675 13.2704 94.5675 12.3273 94.1625 11.5863C93.6225 10.7106 92.5425 10.3065 91.4625 10.5085L91.125 9.43074L102.06 9.22865ZM95.2425 22.9706C93.6225 23.3748 92.1375 24.1831 90.6525 25.3283C90.6525 25.1262 90.72 24.9241 90.72 24.722C90.855 23.9137 90.99 22.8359 91.665 21.7581C91.8675 21.4213 92.1375 21.1518 94.365 19.4677C94.365 19.4677 96.1875 18.1205 98.4825 16.3017C99.2925 15.6281 100.035 15.0892 100.575 14.0114C100.845 13.4725 100.98 12.8662 101.048 12.1926C101.453 12.0579 101.858 11.9232 102.128 11.7211C102.735 12.5968 103.14 13.5399 103.478 14.5503C103.748 15.6281 104.153 17.0427 103.613 18.592C103.14 19.9393 102.06 21.0844 100.508 21.8928C99.4275 22.4317 98.7525 22.4991 97.8075 22.5664C97.065 22.6338 96.255 22.7011 95.2425 22.9706Z" fill="#192235"/>
<path fill-rule="evenodd" clip-rule="evenodd" d="M51.7724 19.2657V12.4621L50.9624 12.5968C50.5574 12.6641 49.0724 12.9336 48.1274 14.2808C47.2499 15.4934 47.3849 16.7732 47.5199 17.5142C47.0474 17.851 46.6424 18.1205 46.1699 18.4573C45.6974 18.7268 45.2249 19.0636 44.7524 19.333C45.0899 19.6698 45.4274 20.074 45.7649 20.4108C46.1699 20.2087 46.5749 19.9393 46.9799 19.6698C47.6549 19.2657 48.2624 18.7941 48.8024 18.3899L49.2749 18.0531L49.0724 17.5142C49.0724 17.4469 48.5999 16.167 49.3424 15.0892C49.6124 14.685 49.9499 14.4156 50.2874 14.2808V18.8615L46.7774 24.2505L45.6974 24.6546C45.6974 24.5873 45.6974 24.5873 45.6974 24.5199C45.5624 23.6442 45.3599 22.297 44.5499 21.0171C44.1449 20.4108 43.7399 20.0066 41.5124 18.3226C41.5124 18.3226 41.1749 18.0531 40.6349 17.649C40.7024 17.5816 40.7024 17.4469 40.8374 17.3795C41.0399 17.2448 41.2424 17.2448 41.5799 17.3121C42.0524 17.3795 42.3224 17.649 42.5249 17.851C42.7274 18.0531 42.9299 18.2552 43.0649 18.4573C43.4699 16.8406 43.8749 15.2239 44.2799 13.6746C44.0099 13.7419 43.6724 13.8093 43.4024 13.8767C42.8624 14.0114 42.3224 13.8093 42.1199 13.4051C41.9849 13.1357 41.9849 12.7315 42.1199 12.4621C42.3899 12.0579 43.0649 11.8558 43.7399 12.1926C44.0099 12.3273 44.2799 12.4621 44.5499 12.5968C44.9549 11.0474 45.3599 9.4981 45.7649 7.94877C41.1074 7.88141 36.4499 7.81404 31.7249 7.74668L31.5899 8.28558C31.4549 8.75712 31.3199 9.43074 31.5899 10.1717C31.6574 10.3065 31.7249 10.5085 31.7924 10.6433C30.9824 11.7211 30.4424 12.9336 30.1049 14.2135C29.7674 15.3586 29.2949 17.1101 29.9699 19.1309C30.1724 19.7372 30.5099 20.2761 30.8474 20.815C31.1174 22.1622 31.0499 23.5095 30.7124 24.722C30.4424 25.6651 30.0374 26.4061 29.7674 26.8102C29.3624 27.4165 29.0924 27.686 28.4174 28.3596C28.2824 28.4943 28.1474 28.629 28.0124 28.7638C26.1899 30.5825 25.3799 31.3909 25.1099 32.0645C25.0424 32.1319 24.9749 32.334 24.8399 32.6708C24.2324 33.9507 22.9499 36.0389 21.4649 36.1063C20.9924 36.1063 20.5874 35.9715 20.3849 35.7694C20.0474 35.2979 20.3849 34.018 20.8574 33.5465L28.0799 26.2713L28.1474 26.204C28.8224 25.1936 28.8224 23.9137 28.0799 22.9706C27.4724 22.2296 26.3924 21.8928 25.3799 22.0949L25.1774 22.1622L23.1524 24.1831C22.5449 24.1158 21.6674 24.1158 20.7899 24.5873C19.5749 25.2609 18.8324 26.6082 18.8324 28.0901V28.6964L19.4399 28.8311C19.6424 28.8985 21.5999 29.2353 23.0174 27.7533C23.8274 26.8776 24.0299 25.9345 24.0974 25.3283L25.8524 23.5769C26.2574 23.5769 26.6624 23.7116 26.8649 23.981C27.2024 24.3852 27.2024 24.9241 26.9324 25.3956L19.8449 32.5361C18.9674 33.4118 18.3599 35.4326 19.2374 36.6452C19.8449 37.4535 20.9249 37.5882 21.3974 37.5882C21.4649 37.5882 21.4649 37.5882 21.5324 37.5882C22.7474 37.5209 23.7599 36.8473 24.5699 35.9715C24.6374 36.241 24.7049 36.5778 24.8399 36.8472C25.2449 37.8577 26.0549 38.8008 26.2574 39.0702C26.5274 39.407 26.7974 39.6765 26.9999 39.8786C27.2024 40.0806 27.4049 40.2827 27.4049 40.3501C27.4049 40.6195 26.7974 41.0911 26.5274 41.2258C25.7174 41.7647 24.7724 41.8994 24.0974 41.8321H23.4224L22.9499 46.2106L25.7849 51.4649H33.7499V48.5683V48.5009C33.6824 47.1537 32.6024 46.0085 31.3199 46.0085C30.6449 46.0085 30.0374 46.3454 29.6324 46.8169C29.4974 46.7495 29.3624 46.6822 29.2274 46.5474C29.2274 46.5474 28.5524 45.9412 28.7549 45.4023C28.8224 45.1328 29.0924 44.9981 29.2274 44.8634C30.7799 44.5266 32.1974 44.055 33.5474 43.3814C34.6274 42.8425 35.3699 42.3036 35.5724 41.4279C35.7749 40.6869 35.5724 40.0133 35.2349 39.1376C34.9649 38.4639 34.7624 38.0598 34.6274 37.7903C34.4924 37.5209 34.4249 37.3862 34.3574 37.1841C34.2224 36.5104 34.6274 35.8368 34.9649 35.2979C35.0324 35.1632 35.0999 35.0285 35.2349 34.8937C36.8549 34.6243 38.1374 34.759 38.9474 34.8937C40.1624 35.0958 40.6349 35.3653 40.9049 35.6347C40.9049 35.6347 42.1199 36.5778 42.1199 37.8577C42.1199 38.5987 41.7149 39.4744 41.1749 40.6195L41.1074 40.7543C40.9049 41.2258 40.6349 41.7647 40.7699 42.5057C40.9049 43.1793 41.3774 43.7856 42.1199 44.2571C42.9974 44.796 43.8749 44.796 44.3474 44.7287L44.6849 44.6613L44.8874 44.3918C44.8874 44.3918 45.3599 43.7856 46.1024 43.8529C46.2374 43.8529 46.8449 43.9203 47.1149 44.3918C47.3174 44.7287 47.3174 45.0655 47.1824 45.4696H40.1624L38.4749 43.3814C38.6099 43.1793 39.2174 42.2362 38.9474 41.0237C38.6774 39.8112 37.6649 38.8008 36.3149 38.4639C36.3149 39.0028 36.3149 39.5417 36.3149 40.0806C36.8549 40.2154 37.3274 40.6869 37.3949 41.2932C37.5299 42.1015 36.9224 42.7078 36.9224 42.7078L36.3824 43.1793L39.3524 46.9516H47.9924L48.2624 46.6148C48.9374 45.6717 49.0724 44.4592 48.5324 43.5161C47.8574 42.371 46.6424 42.1689 46.2374 42.1689C45.1574 42.1015 44.3474 42.6404 43.9424 43.0446C43.6724 43.0446 43.3349 42.9772 42.9974 42.7751C42.5924 42.5731 42.3899 42.3036 42.3899 42.0342C42.3224 41.8321 42.3899 41.6973 42.5924 41.2258L42.6599 41.0911C43.2674 39.7438 43.7399 38.7334 43.7399 37.6556C43.7399 35.7021 42.1199 34.3548 41.9174 34.1528C41.1074 33.4791 40.2299 33.3444 39.2849 33.1423C38.6099 33.0076 37.9349 32.9402 37.2599 32.9402C38.2724 32.334 39.3524 31.9972 39.9599 31.8624C39.9599 31.3909 39.9599 30.9194 39.9599 30.4478C38.6099 30.7173 37.5299 31.1888 36.8549 31.5256C36.0449 31.9298 34.6949 32.7381 33.6824 34.3548C33.6824 34.3548 32.6699 35.9715 32.9399 37.2514C33.0074 37.723 33.2099 38.0598 33.3449 38.3292C33.4799 38.5987 33.6824 38.9355 33.8849 39.4744C34.1549 40.2154 34.2899 40.6195 34.1549 40.889C34.0874 41.1584 33.8174 41.4279 32.8724 41.8994C31.6574 42.5057 30.3074 42.9772 28.8224 43.2467H28.7549L28.6874 43.314C28.4174 43.4488 27.6749 43.8529 27.4049 44.7287C27.0674 45.8065 27.6749 46.8169 28.2824 47.4232C28.8224 47.8947 29.4299 48.0968 29.8349 48.1641L30.3749 48.2315L30.6449 47.76C30.8474 47.4232 31.1174 47.2211 31.4549 47.2211C31.8599 47.2211 32.3324 47.6252 32.3999 48.2989V49.7135H26.7974L24.5699 45.6717L24.8399 43.0446C25.6499 42.9772 26.5949 42.7751 27.4724 42.1689C27.9449 41.8321 28.9574 41.1584 28.9574 40.0806C28.9574 39.407 28.5524 39.0028 28.1474 38.5313C27.9449 38.3292 27.7424 38.1271 27.4724 37.8577C27.0674 37.3862 26.5274 36.6452 26.2574 36.0389C25.7849 34.8937 26.1224 33.6139 26.3249 32.9402C26.4599 32.7381 26.5274 32.5361 26.5274 32.4687C26.7299 31.9972 27.6749 31.1214 29.1599 29.5721C29.2949 29.4374 29.4299 29.3027 29.5649 29.1679C30.2399 28.4269 30.6449 28.0901 31.1174 27.3491C31.4549 26.8102 31.9274 26.0019 32.1974 24.8567C32.4674 23.981 32.5349 23.1053 32.5349 22.1622C32.9399 22.4317 33.3449 22.7011 33.8174 22.9706C35.0999 23.6442 36.1124 23.7116 37.1249 23.7789C37.7999 23.8463 38.4749 23.8463 39.3524 24.1158C41.1074 24.5873 42.7949 25.5977 44.2799 27.0797C44.2799 27.1471 44.2799 27.2818 44.2799 27.3491V27.4165V27.4839C44.4824 29.37 45.5624 30.7846 46.9124 31.0541C47.3849 31.1214 47.8574 31.0541 48.3299 30.9194L48.5324 30.852L48.6674 30.6499C48.8024 30.4478 49.0724 30.1784 49.5449 29.9763C49.7474 29.9089 49.8824 29.9089 50.0849 29.9089L50.1524 32.6034L45.2249 32.6708C44.7524 31.7277 44.1449 30.852 43.3349 30.111C43.0649 29.9089 42.4574 29.3027 41.5124 28.6964C40.5674 28.1575 39.6899 27.8207 38.9474 27.686C38.9474 28.2249 38.9474 28.6964 38.9474 29.2353C39.8249 29.5047 41.1074 30.0436 42.3224 31.1888C43.0649 31.9298 43.6724 32.7381 44.0774 33.7486L44.2799 34.2201L51.6374 34.1528L51.5699 28.7638L51.0299 28.629C50.4224 28.4943 49.7474 28.4943 49.1399 28.6964C48.4649 28.9658 47.9924 29.37 47.7224 29.7068C47.5874 29.7742 47.4524 29.7742 47.3174 29.7068C46.7099 29.6395 46.0349 28.8311 45.8999 27.4839C45.9674 26.945 45.9674 26.4734 45.9674 25.9345L47.8574 25.1936L51.7724 19.2657ZM22.0049 26.6755C21.5324 27.2144 20.8574 27.3491 20.3849 27.3491C20.5199 26.6755 20.9249 26.1366 21.4649 25.7998C21.8699 25.5977 22.2074 25.5304 22.5449 25.5304C22.4774 25.9345 22.3424 26.3387 22.0049 26.6755ZM43.8749 9.43074L43.5374 10.6433C42.4574 10.4412 41.3774 10.8454 40.8374 11.7211C40.3649 12.4621 40.3649 13.4051 40.8374 14.1461C41.2424 14.8197 41.9174 15.2913 42.6599 15.3586L42.5249 16.0996C42.3224 16.0323 42.0524 15.8975 41.7824 15.8975C41.3774 15.8302 40.6349 15.6954 39.8924 16.2343C39.6899 16.3691 39.4874 16.5712 39.4199 16.7732C38.8124 16.3017 38.1374 15.7628 37.3949 15.2239C36.5849 14.5503 36.1124 14.1461 35.7749 13.4725C35.5049 12.9336 35.3699 12.3273 35.4374 11.7211V11.0474L34.7624 10.9801C33.9524 10.9127 33.2774 10.4412 33.0074 9.83492C32.9399 9.70019 32.9399 9.4981 32.9399 9.36338L43.8749 9.43074ZM37.1924 22.5664C36.2474 22.4991 35.5049 22.4317 34.4924 21.8928C32.8724 21.0844 31.8599 19.9393 31.3874 18.592C30.8474 17.0427 31.2524 15.6954 31.5224 14.5503C31.7924 13.5399 32.2649 12.5968 32.8724 11.7211C33.2099 11.9232 33.5474 12.1252 33.9524 12.1926C34.0199 12.7989 34.1549 13.4051 34.4249 14.0114C34.9649 15.0892 35.6399 15.6281 36.5174 16.3017C38.8124 18.1205 40.6349 19.4677 40.6349 19.4677C42.8624 21.1518 43.0649 21.3539 43.3349 21.7581C44.0099 22.7685 44.1449 23.9137 44.2799 24.722C44.2799 24.9241 44.3474 25.1262 44.3474 25.3283C42.9299 24.1831 41.3774 23.3748 39.7574 22.9706C38.7449 22.7011 37.9349 22.6338 37.1924 22.5664Z" fill="#192235"/>
<path fill-rule="evenodd" clip-rule="evenodd" d="M68.985 9.29601H66.015H51.7725V25.1935V25.2609C52.0425 27.2818 52.92 30.3131 55.2825 33.1423C58.6575 37.2514 63.2475 38.666 66.015 39.1376C66.4875 39.2049 67.0275 39.2723 67.5 39.3397C67.9725 39.2723 68.5125 39.2049 68.985 39.1376C71.685 38.666 76.275 37.1841 79.7175 33.1423C82.08 30.3131 82.9575 27.2818 83.2275 25.2609V25.1935V9.29601H68.985ZM80.19 12.1252V15.6954H69.0525V12.1252H80.19ZM69.0525 22.4317V18.6594H80.19V22.4317H69.0525ZM54.8775 25.2609H66.015V28.4943H55.89C55.2825 27.2818 55.0125 26.204 54.8775 25.2609ZM65.9475 22.4317H61.695V12.1252H65.9475V22.4317ZM58.6575 12.1252V22.3643H54.81V12.1252H58.6575ZM57.7125 31.4583L57.645 31.3909H66.015V36.3083C63.6525 35.7695 60.2775 34.4896 57.7125 31.4583ZM69.0525 25.2609H72.6975V35.0285C71.3475 35.7021 70.065 36.0389 69.0525 36.3083V25.2609ZM77.2875 31.4583C76.815 32.0645 76.275 32.6034 75.735 33.075V25.2609H80.19C79.8525 26.945 79.11 29.2353 77.2875 31.4583Z" fill="#192235"/>
<path fill-rule="evenodd" clip-rule="evenodd" d="M67.5676 6.06262H78.5026V0H75.6676V3.2334H72.2251V0H69.3226V3.2334H67.5676H67.4326H65.6776V0H62.7751V3.2334H59.3326V0H56.4976V6.06262H67.4326H67.5676Z" fill="#192235"/>
</g>
<defs>
<clipPath id="clip0_38_799">
<rect width="135" height="71" fill="white"/>
</clipPath>
</defs>
</svg>
